<svg xmlns="http://www.w3.org/2000/svg" xmlns:xlink="http://www.w3.org/1999/xlink" viewBox="0 0 16 16"><defs><style>.cls-1{fill:none;}.cls-2{fill:url(#radial-gradient);}.cls-3{fill:#26247b;}.cls-4{fill:url(#linear-gradient);}.cls-5{fill:url(#radial-gradient-2);}.cls-6{fill:url(#radial-gradient-3);}.cls-7{fill:url(#linear-gradient-2);}.cls-8{fill:url(#radial-gradient-4);}.cls-10,.cls-11,.cls-9{opacity:0.8;isolation:isolate;}.cls-9{fill:url(#linear-gradient-3);}.cls-10{fill:url(#linear-gradient-4);}.cls-11{fill:url(#linear-gradient-5);}.cls-12{fill:url(#linear-gradient-6);}</style><radialGradient id="radial-gradient" cx="1.81" cy="168.95" r="7.18" gradientTransform="translate(0 -86.29) scale(1 0.54)" gradientUnits="userSpaceOnUse"><stop offset="0.19" stop-color="#0083ca"/><stop offset="0.26" stop-color="#0081c8"/><stop offset="0.35" stop-color="#007ac2"/><stop offset="0.42" stop-color="#0072bc"/><stop offset="0.49" stop-color="#006fba"/><stop offset="0.57" stop-color="#0068b4"/><stop offset="0.65" stop-color="#005cab"/><stop offset="0.7" stop-color="#0054a6"/><stop offset="1" stop-color="#26247b"/></radialGradient><linearGradient id="linear-gradient" x1="14.1" y1="9.51" x2="14.1" y2="5.55" gradientTransform="translate(0 0.53)" gradientUnits="userSpaceOnUse"><stop offset="0" stop-color="#820000"/><stop offset="0.22" stop-color="#c4161c"/><stop offset="0.47" stop-color="#ed1c24"/><stop offset="0.52" stop-color="#ee3424"/><stop offset="0.63" stop-color="#f05123"/><stop offset="0.7" stop-color="#f15a22"/><stop offset="0.85" stop-color="#f6851f"/><stop offset="1" stop-color="#fcaf17"/></linearGradient><radialGradient id="radial-gradient-2" cx="5.64" cy="30.54" r="7.26" gradientTransform="matrix(1, 0, 0, -1, 0, 18)" xlink:href="#radial-gradient"/><radialGradient id="radial-gradient-3" cx="9.57" cy="30.54" r="7.37" gradientTransform="matrix(1, 0, 0, -1, 0, 18)" xlink:href="#radial-gradient"/><linearGradient id="linear-gradient-2" x1="11.09" y1="9.52" x2="11.09" y2="5.52" gradientTransform="translate(0 0.53)" gradientUnits="userSpaceOnUse"><stop offset="0" stop-color="#c12428"/><stop offset="0.48" stop-color="#e8242a"/><stop offset="0.52" stop-color="#ea3529"/><stop offset="0.63" stop-color="#ee5227"/><stop offset="0.7" stop-color="#f05b26"/><stop offset="0.86" stop-color="#f38523"/><stop offset="1" stop-color="#f6ab1b"/></linearGradient><radialGradient id="radial-gradient-4" cx="9.57" cy="168.93" r="7.37" gradientTransform="translate(0 -86.28) scale(1 0.54)" xlink:href="#radial-gradient"/><linearGradient id="linear-gradient-3" x1="2.33" y1="5.71" x2="1.84" y2="8.5" gradientTransform="translate(0 0.53)" gradientUnits="userSpaceOnUse"><stop offset="0" stop-color="#fff" stop-opacity="0.8"/><stop offset="0.63" stop-color="#fff" stop-opacity="0"/></linearGradient><linearGradient id="linear-gradient-4" x1="6.11" y1="6.36" x2="5.63" y2="9.16" xlink:href="#linear-gradient-3"/><linearGradient id="linear-gradient-5" x1="9.89" y1="7.02" x2="9.41" y2="9.81" xlink:href="#linear-gradient-3"/><linearGradient id="linear-gradient-6" x1="10.47" y1="9.37" x2="10.98" y2="8.4" gradientTransform="translate(0 0.53)" gradientUnits="userSpaceOnUse"><stop offset="0.11" stop-color="#2e3192" stop-opacity="0"/><stop offset="0.98" stop-color="#000039"/></linearGradient></defs><title>Asset 1</title><g id="Layer_2" data-name="Layer 2"><g id="Layer_1-2" data-name="Layer 1"><rect class="cls-1" width="16" height="16"/><g id="Layer_2-2" data-name="Layer 2"><g id="Layer_1-2-2" data-name="Layer 1-2"><path class="cls-2" d="M3.72,9c0,.82-.9,1.2-1.52,1.26A3.54,3.54,0,0,1,.26,9.85a.13.13,0,0,1-.05-.19h0L.56,9A.13.13,0,0,1,.74,9,2.94,2.94,0,0,0,2,9.3c.42,0,.67-.18.67-.37h0c0-.31-.36-.43-1.11-.68S.32,7.5.32,7.05c0-1.2,1.51-1.59,2.62-1.11A.14.14,0,0,1,3,6.12H3l-.29.52a.12.12,0,0,1-.17.06A1.39,1.39,0,0,0,2,6.62c-.53,0-.65.41-.52.6s.28.26,1,.44h0C2.91,7.8,3.72,8.07,3.72,9Z"/><path class="cls-3" d="M12.58,10.19h.58a.2.2,0,0,0,.19-.19V9.65l-1-.41V10A.19.19,0,0,0,12.58,10.19Z"/><path class="cls-4" d="M14.31,8.82h0a1.51,1.51,0,0,0,1.5-1.51h0a1.5,1.5,0,0,0-1.5-1.5H12.58a.18.18,0,0,0-.19.18h0V9.23l1,.42V8.91a.09.09,0,0,1,.08-.09h.88Zm0-1h-.88a.09.09,0,0,1-.08-.09h0V6.85a.09.09,0,0,1,.08-.09h.88a.55.55,0,0,1,.54.55h0a.55.55,0,0,1-.54.55h0Z"/><path class="cls-5" d="M7.71,9.54,7.25,9a.13.13,0,0,0-.18,0,1.68,1.68,0,0,1-.54.26h0a1.28,1.28,0,0,1-1-.08h0A1.3,1.3,0,0,1,5,7.39,1.28,1.28,0,0,1,6.17,6.7h0a2,2,0,0,1,.59.1.12.12,0,0,0,.17-.07l.29-.63h0a.13.13,0,0,0-.08-.17,2.69,2.69,0,0,0-1-.18h0A2.27,2.27,0,0,0,3.85,8a3.22,3.22,0,0,0,0,.43,2.29,2.29,0,0,0,2.45,1.87,2.16,2.16,0,0,0,.49-.11,2.75,2.75,0,0,0,.86-.42.12.12,0,0,0,0-.17Z"/><path class="cls-6" d="M11,8.63v0A1.3,1.3,0,1,1,9.93,6.7h0a2,2,0,0,1,.59.1.14.14,0,0,0,.16-.07L11,6.1h0a.13.13,0,0,0-.08-.17,2.69,2.69,0,0,0-1-.18h0a2.26,2.26,0,1,0,1.46,3.93,2.3,2.3,0,0,0,.5-.66Z"/><path class="cls-7" d="M10.37,7.41a.16.16,0,0,1,.18-.07L12,8a.13.13,0,0,1,.08.13,2.36,2.36,0,0,1-.24.9l-1.74-.76a.14.14,0,0,1-.07-.18h0Z"/><path class="cls-8" d="M11.88,9,11,8.63h0Z"/><path class="cls-9" d="M1.53,8.25c.74.25,1.1.37,1.1.68h0c0,.19-.24.36-.66.37A3,3,0,0,1,.73,9,.14.14,0,0,0,.55,9L.2,9.66a.15.15,0,0,0,.06.19,3.44,3.44,0,0,0,1.94.4C2.82,10.18,3.72,9.8,3.72,9S2.91,7.81,2.44,7.67h0c-.67-.19-.87-.32-.95-.45s0-.61.52-.6a1.39,1.39,0,0,1,.54.09.13.13,0,0,0,.17-.06L3,6.22a7.08,7.08,0,0,0-2.62.66,1,1,0,0,0,0,.17C.32,7.5.79,8,1.53,8.25Z"/><path class="cls-10" d="M3.88,8.38a2.28,2.28,0,0,0,2.45,1.87,2.84,2.84,0,0,0,.49-.1,3.27,3.27,0,0,0,.86-.42.14.14,0,0,0,0-.19h0L7.25,9a.13.13,0,0,0-.18,0,1.68,1.68,0,0,1-.54.26h0a1.28,1.28,0,0,1-1-.08h0A1.3,1.3,0,0,1,5,7.39,1.28,1.28,0,0,1,6.17,6.7a2,2,0,0,1,.54.08l-.07,0a10.57,10.57,0,0,0-2-.47A2.27,2.27,0,0,0,3.88,8.38Z"/><path class="cls-11" d="M7.64,8.38a2.25,2.25,0,0,0,2.6,1.85,2.31,2.31,0,0,0,1.14-.56,2.4,2.4,0,0,0,.5-.65L11,8.63v0a1.32,1.32,0,0,1-1.67.54,1.3,1.3,0,0,1-.7-1.59l-.88-.38A2.18,2.18,0,0,0,7.64,8.38Z"/><path class="cls-12" d="M11.38,9.67a2.22,2.22,0,0,0,.5-.65L11,8.63v0a1.3,1.3,0,0,1-1.15.65v.95A2.2,2.2,0,0,0,11.38,9.67Z"/></g></g></g></g></svg>