<svg id="Layer_1" data-name="Layer 1" xmlns="http://www.w3.org/2000/svg" xmlns:xlink="http://www.w3.org/1999/xlink" viewBox="0 0 32 32"><defs><style>.cls-1{fill:none;}.cls-2{fill:url(#radial-gradient);}.cls-3{fill:#26247b;}.cls-4{fill:url(#linear-gradient);}.cls-5{fill:url(#radial-gradient-2);}.cls-6{fill:url(#radial-gradient-3);}.cls-7{fill:url(#linear-gradient-2);}.cls-8{fill:url(#radial-gradient-4);}.cls-10,.cls-11,.cls-9{opacity:0.8;isolation:isolate;}.cls-9{fill:url(#linear-gradient-3);}.cls-10{fill:url(#linear-gradient-4);}.cls-11{fill:url(#linear-gradient-5);}.cls-12{fill:url(#linear-gradient-6);}</style><radialGradient id="radial-gradient" cx="3.62" cy="171.28" r="14.36" gradientTransform="translate(0 -82.61) scale(1 0.54)" gradientUnits="userSpaceOnUse"><stop offset="0.19" stop-color="#0083ca"/><stop offset="0.26" stop-color="#0081c8"/><stop offset="0.35" stop-color="#007ac2"/><stop offset="0.42" stop-color="#0072bc"/><stop offset="0.49" stop-color="#006fba"/><stop offset="0.57" stop-color="#0068b4"/><stop offset="0.65" stop-color="#005cab"/><stop offset="0.7" stop-color="#0054a6"/><stop offset="1" stop-color="#26247b"/></radialGradient><linearGradient id="linear-gradient" x1="28.2" y1="19.55" x2="28.2" y2="11.62" gradientTransform="translate(0 0.53)" gradientUnits="userSpaceOnUse"><stop offset="0" stop-color="#820000"/><stop offset="0.22" stop-color="#c4161c"/><stop offset="0.47" stop-color="#ed1c24"/><stop offset="0.52" stop-color="#ee3424"/><stop offset="0.63" stop-color="#f05123"/><stop offset="0.7" stop-color="#f15a22"/><stop offset="0.85" stop-color="#f6851f"/><stop offset="1" stop-color="#fcaf17"/></linearGradient><radialGradient id="radial-gradient-2" cx="11.28" cy="59.09" r="14.53" gradientTransform="matrix(1, 0, 0, -1, 0, 34)" xlink:href="#radial-gradient"/><radialGradient id="radial-gradient-3" cx="19.14" cy="59.09" r="14.73" gradientTransform="matrix(1, 0, 0, -1, 0, 34)" xlink:href="#radial-gradient"/><linearGradient id="linear-gradient-2" x1="22.17" y1="19.57" x2="22.17" y2="11.57" gradientTransform="translate(0 0.53)" gradientUnits="userSpaceOnUse"><stop offset="0" stop-color="#c12428"/><stop offset="0.48" stop-color="#e8242a"/><stop offset="0.52" stop-color="#ea3529"/><stop offset="0.63" stop-color="#ee5227"/><stop offset="0.7" stop-color="#f05b26"/><stop offset="0.86" stop-color="#f38523"/><stop offset="1" stop-color="#f6ab1b"/></linearGradient><radialGradient id="radial-gradient-4" cx="19.14" cy="171.27" r="14.73" gradientTransform="translate(0 -82.6) scale(1 0.54)" xlink:href="#radial-gradient"/><linearGradient id="linear-gradient-3" x1="4.66" y1="11.94" x2="3.68" y2="17.53" gradientTransform="translate(0 0.53)" gradientUnits="userSpaceOnUse"><stop offset="0" stop-color="#fff" stop-opacity="0.8"/><stop offset="0.63" stop-color="#fff" stop-opacity="0"/></linearGradient><linearGradient id="linear-gradient-4" x1="12.23" y1="13.26" x2="11.25" y2="18.85" xlink:href="#linear-gradient-3"/><linearGradient id="linear-gradient-5" x1="19.78" y1="14.57" x2="18.81" y2="20.16" xlink:href="#linear-gradient-3"/><linearGradient id="linear-gradient-6" x1="20.94" y1="19.27" x2="21.97" y2="17.34" gradientTransform="translate(0 0.53)" gradientUnits="userSpaceOnUse"><stop offset="0.11" stop-color="#2e3192" stop-opacity="0"/><stop offset="0.98" stop-color="#000039"/></linearGradient></defs><title>Artboard 1</title><rect class="cls-1" width="32" height="32"/><g id="Layer_2" data-name="Layer 2"><g id="Layer_1-2" data-name="Layer 1-2"><path class="cls-2" d="M7.44,18c0,1.64-1.8,2.42-3,2.54a7,7,0,0,1-3.89-.8.27.27,0,0,1-.11-.36h0L1.11,18a.28.28,0,0,1,.36-.12,6.12,6.12,0,0,0,2.47.68c.84,0,1.34-.36,1.33-.74h0c0-.61-.72-.87-2.2-1.37S.65,15,.64,14.11c.08-2.4,3-3.19,5.24-2.22a.27.27,0,0,1,.14.36v0l-.56,1a.29.29,0,0,1-.35.12A2.61,2.61,0,0,0,4,13.23c-1.07,0-1.31.83-1.06,1.2s.57.53,1.9.9h0C5.83,15.6,7.44,16.13,7.44,18Z"/><path class="cls-3" d="M25.16,20.38h1.16A.38.38,0,0,0,26.7,20v-.69l-1.92-.83V20A.39.39,0,0,0,25.16,20.38Z"/><path class="cls-4" d="M28.61,17.64h0a3,3,0,0,0,3-3h0a3,3,0,0,0-3-3H25.15a.38.38,0,0,0-.37.37h0v6.48l1.92.84V17.82a.17.17,0,0,1,.17-.17h1.74Zm0-1.9H26.87a.17.17,0,0,1-.17-.17h0V13.7a.17.17,0,0,1,.17-.18h1.74a1.09,1.09,0,0,1,1.09,1.1h0a1.09,1.09,0,0,1-1.08,1.1h0Z"/><path class="cls-5" d="M15.42,19.08c-.21-.25-.72-.83-.93-1.09a.29.29,0,0,0-.36,0,3.88,3.88,0,0,1-1.08.53h0a2.55,2.55,0,0,1-2-.17h0a2.6,2.6,0,0,1,1.33-4.91h0a3.68,3.68,0,0,1,1.18.22.27.27,0,0,0,.33-.15l.59-1.26v0a.27.27,0,0,0-.16-.34,6.1,6.1,0,0,0-1.94-.35h0a4.52,4.52,0,0,0-4.63,4.41,4.1,4.1,0,0,0,.06.86,4.53,4.53,0,0,0,4.88,3.74,4.35,4.35,0,0,0,1-.21,5.77,5.77,0,0,0,1.71-.83.26.26,0,0,0,.07-.36Z"/><path class="cls-6" d="M22,17.27v0a2.6,2.6,0,1,1-2.15-3.9h0a3.63,3.63,0,0,1,1.18.22.28.28,0,0,0,.32-.15l.59-1.26v0a.27.27,0,0,0-.16-.34,6.1,6.1,0,0,0-1.94-.35h0a4.52,4.52,0,1,0,2.93,7.85,4.67,4.67,0,0,0,1-1.3Z"/><path class="cls-7" d="M20.74,14.82a.27.27,0,0,1,.35-.13l3,1.29a.26.26,0,0,1,.16.26A4.49,4.49,0,0,1,23.76,18l-3.49-1.51a.28.28,0,0,1-.14-.36h0Z"/><path class="cls-8" d="M23.76,18,22,17.27h0Z"/><path class="cls-9" d="M3.07,16.49c1.48.5,2.2.76,2.2,1.37h0c0,.38-.49.72-1.34.74a6,6,0,0,1-2.46-.68.28.28,0,0,0-.36.12l-.7,1.28a.27.27,0,0,0,.1.37,7,7,0,0,0,3.89.81c1.24-.14,3-.91,3-2.54,0-1.81-1.62-2.34-2.57-2.63h0C3.54,15,3.15,14.7,3,14.43S3,13.22,4,13.24a2.6,2.6,0,0,1,1.07.19.28.28,0,0,0,.35-.13l.46-.85A14.06,14.06,0,0,0,.66,13.76c0,.11,0,.23,0,.34C.64,15,1.58,16,3.07,16.49Z"/><path class="cls-10" d="M7.77,16.76a4.54,4.54,0,0,0,4.88,3.74,4.35,4.35,0,0,0,1-.21,6,6,0,0,0,1.71-.84.26.26,0,0,0,.07-.36h0c-.21-.25-.72-.83-.93-1.09a.29.29,0,0,0-.36,0,3.88,3.88,0,0,1-1.08.53h0a2.55,2.55,0,0,1-2-.17h0a2.6,2.6,0,0,1,1.33-4.91,3.94,3.94,0,0,1,1.08.18l-.13,0a20.52,20.52,0,0,0-4-.95A4.53,4.53,0,0,0,7.77,16.76Z"/><path class="cls-11" d="M15.27,16.76a4.52,4.52,0,0,0,7.5,2.58,4.72,4.72,0,0,0,1-1.31L22,17.27v0a2.61,2.61,0,0,1-3.35,1.08,2.58,2.58,0,0,1-1.39-3.17l-1.77-.77A4.52,4.52,0,0,0,15.27,16.76Z"/><path class="cls-12" d="M22.77,19.34a4.53,4.53,0,0,0,1-1.31L22,17.27v0a2.58,2.58,0,0,1-2.3,1.31v1.9A4.47,4.47,0,0,0,22.77,19.34Z"/></g></g></svg>