<svg xmlns="http://www.w3.org/2000/svg" xmlns:xlink="http://www.w3.org/1999/xlink" viewBox="0 0 48 48"><defs><style>.cls-1{fill:none;}.cls-2{fill:url(#radial-gradient);}.cls-3{fill:#26247b;}.cls-4{fill:url(#linear-gradient);}.cls-5{fill:url(#radial-gradient-2);}.cls-6{fill:url(#radial-gradient-3);}.cls-7{fill:url(#linear-gradient-2);}.cls-8{fill:url(#radial-gradient-4);}.cls-10,.cls-11,.cls-9{opacity:0.8;isolation:isolate;}.cls-9{fill:url(#linear-gradient-3);}.cls-10{fill:url(#linear-gradient-4);}.cls-11{fill:url(#linear-gradient-5);}.cls-12{fill:url(#linear-gradient-6);}</style><radialGradient id="radial-gradient" cx="5.44" cy="173.62" r="21.54" gradientTransform="translate(0 -78.93) scale(1 0.54)" gradientUnits="userSpaceOnUse"><stop offset="0.19" stop-color="#0083ca"/><stop offset="0.26" stop-color="#0081c8"/><stop offset="0.35" stop-color="#007ac2"/><stop offset="0.42" stop-color="#0072bc"/><stop offset="0.49" stop-color="#006fba"/><stop offset="0.57" stop-color="#0068b4"/><stop offset="0.65" stop-color="#005cab"/><stop offset="0.7" stop-color="#0054a6"/><stop offset="1" stop-color="#26247b"/></radialGradient><linearGradient id="linear-gradient" x1="42.3" y1="29.59" x2="42.3" y2="17.7" gradientTransform="translate(0 0.53)" gradientUnits="userSpaceOnUse"><stop offset="0" stop-color="#820000"/><stop offset="0.22" stop-color="#c4161c"/><stop offset="0.47" stop-color="#ed1c24"/><stop offset="0.52" stop-color="#ee3424"/><stop offset="0.63" stop-color="#f05123"/><stop offset="0.7" stop-color="#f15a22"/><stop offset="0.85" stop-color="#f6851f"/><stop offset="1" stop-color="#fcaf17"/></linearGradient><radialGradient id="radial-gradient-2" cx="16.92" cy="87.63" r="21.79" gradientTransform="matrix(1, 0, 0, -1, 0, 50)" xlink:href="#radial-gradient"/><radialGradient id="radial-gradient-3" cx="28.72" cy="87.63" r="22.1" gradientTransform="matrix(1, 0, 0, -1, 0, 50)" xlink:href="#radial-gradient"/><linearGradient id="linear-gradient-2" x1="33.26" y1="29.62" x2="33.26" y2="17.62" gradientTransform="translate(0 0.53)" gradientUnits="userSpaceOnUse"><stop offset="0" stop-color="#c12428"/><stop offset="0.48" stop-color="#e8242a"/><stop offset="0.52" stop-color="#ea3529"/><stop offset="0.63" stop-color="#ee5227"/><stop offset="0.7" stop-color="#f05b26"/><stop offset="0.86" stop-color="#f38523"/><stop offset="1" stop-color="#f6ab1b"/></linearGradient><radialGradient id="radial-gradient-4" cx="28.72" cy="173.61" r="22.1" gradientTransform="translate(0 -78.92) scale(1 0.54)" xlink:href="#radial-gradient"/><linearGradient id="linear-gradient-3" x1="6.99" y1="18.18" x2="5.53" y2="26.56" gradientTransform="translate(0 0.53)" gradientUnits="userSpaceOnUse"><stop offset="0" stop-color="#fff" stop-opacity="0.8"/><stop offset="0.63" stop-color="#fff" stop-opacity="0"/></linearGradient><linearGradient id="linear-gradient-4" x1="18.34" y1="20.15" x2="16.88" y2="28.53" xlink:href="#linear-gradient-3"/><linearGradient id="linear-gradient-5" x1="29.67" y1="22.12" x2="28.22" y2="30.5" xlink:href="#linear-gradient-3"/><linearGradient id="linear-gradient-6" x1="31.41" y1="29.17" x2="32.95" y2="26.27" gradientTransform="translate(0 0.53)" gradientUnits="userSpaceOnUse"><stop offset="0.11" stop-color="#2e3192" stop-opacity="0"/><stop offset="0.98" stop-color="#000039"/></linearGradient></defs><title>Asset 1</title><g id="Layer_2" data-name="Layer 2"><g id="Layer_1-2" data-name="Layer 1"><rect class="cls-1" width="48" height="48"/><g id="Layer_2-2" data-name="Layer 2"><g id="Layer_1-2-2" data-name="Layer 1-2"><path class="cls-2" d="M11.16,26.93c0,2.46-2.7,3.62-4.55,3.8A10.54,10.54,0,0,1,.78,29.54.4.4,0,0,1,.62,29h0l1-1.93a.4.4,0,0,1,.54-.17,9.21,9.21,0,0,0,3.7,1c1.26,0,2-.54,2-1.11h0c0-.92-1.08-1.3-3.31-2.05S1,22.51,1,21.16c.12-3.6,4.53-4.78,7.86-3.33a.41.41,0,0,1,.21.54v0L8.17,20a.4.4,0,0,1-.51.18A4.26,4.26,0,0,0,6,19.85c-1.59,0-2,1.24-1.58,1.8.27.37.86.8,2.85,1.34h0C8.74,23.4,11.16,24.2,11.16,26.93Z"/><path class="cls-3" d="M37.73,30.57h1.75a.59.59,0,0,0,.57-.57V29l-2.88-1.25V30A.58.58,0,0,0,37.73,30.57Z"/><path class="cls-4" d="M42.92,26.46h0a4.53,4.53,0,0,0,4.52-4.52h0a4.52,4.52,0,0,0-4.52-4.52H37.73a.56.56,0,0,0-.56.56h0V27.7L40.05,29V26.72a.25.25,0,0,1,.25-.25h2.62Zm0-2.85H40.3a.26.26,0,0,1-.25-.26h0V20.54a.25.25,0,0,1,.25-.25h2.62a1.64,1.64,0,0,1,1.64,1.64h0a1.65,1.65,0,0,1-1.62,1.65h0Z"/><path class="cls-5" d="M23.14,28.63,21.74,27a.42.42,0,0,0-.54-.08,5.54,5.54,0,0,1-1.62.79h0a3.86,3.86,0,0,1-3.07-.25h0a3.91,3.91,0,0,1,2-7.36h0a5.59,5.59,0,0,1,1.77.32.4.4,0,0,0,.5-.21l.89-1.9s0,0,0,0a.4.4,0,0,0-.25-.51,8.71,8.71,0,0,0-2.91-.53h0a6.78,6.78,0,0,0-7,6.62,7,7,0,0,0,.09,1.29A6.82,6.82,0,0,0,19,30.74a6.37,6.37,0,0,0,1.49-.31A8.78,8.78,0,0,0,23,29.17a.38.38,0,0,0,.1-.53Z"/><path class="cls-6" d="M33,25.9v0a3.91,3.91,0,1,1-3.22-5.85h0a5.64,5.64,0,0,1,1.77.32A.4.4,0,0,0,32,20.2l.88-1.9v0a.41.41,0,0,0-.24-.51,8.8,8.8,0,0,0-2.91-.53h0A6.77,6.77,0,1,0,34.15,29a7.12,7.12,0,0,0,1.49-2Z"/><path class="cls-7" d="M31.1,22.24a.43.43,0,0,1,.54-.21L36.11,24a.38.38,0,0,1,.24.38,6.8,6.8,0,0,1-.71,2.69l-5.23-2.28a.39.39,0,0,1-.21-.53h0Z"/><path class="cls-8" d="M35.64,27.05,33,25.9h0Z"/><path class="cls-9" d="M4.6,24.74c2.22.75,3.3,1.13,3.3,2.05h0c0,.57-.73,1.08-2,1.11a9.21,9.21,0,0,1-3.7-1,.39.39,0,0,0-.54.17L.61,29a.42.42,0,0,0,.16.55A10.45,10.45,0,0,0,6.6,30.75c1.86-.21,4.56-1.36,4.56-3.8,0-2.73-2.42-3.53-3.85-3.95h0c-2-.55-2.59-.95-2.85-1.35s0-1.82,1.58-1.8a4.26,4.26,0,0,1,1.62.29A.39.39,0,0,0,8.17,20l.69-1.28a21,21,0,0,0-7.86,2,2.94,2.94,0,0,0-.05.51C1,22.51,2.37,24,4.6,24.74Z"/><path class="cls-10" d="M11.65,25.14A6.82,6.82,0,0,0,19,30.75a7.06,7.06,0,0,0,1.49-.31A9.17,9.17,0,0,0,23,29.18a.4.4,0,0,0,.1-.55h0L21.74,27a.42.42,0,0,0-.54-.08,5.54,5.54,0,0,1-1.62.79h0a3.86,3.86,0,0,1-3.07-.25h0a3.91,3.91,0,0,1,2-7.36,5.9,5.9,0,0,1,1.62.26l-.2-.06a29.52,29.52,0,0,0-6-1.42A6.8,6.8,0,0,0,11.65,25.14Z"/><path class="cls-11" d="M22.91,25.14A6.77,6.77,0,0,0,34.15,29a7,7,0,0,0,1.49-2L33,25.9v0a3.91,3.91,0,0,1-5,1.62,3.87,3.87,0,0,1-2.09-4.76l-2.65-1.15A6.59,6.59,0,0,0,22.91,25.14Z"/><path class="cls-12" d="M34.15,29a6.62,6.62,0,0,0,1.49-2L33,25.9v0a3.9,3.9,0,0,1-3.45,2v2.86A6.68,6.68,0,0,0,34.15,29Z"/></g></g></g></g></svg>