<svg id="Layer_1" data-name="Layer 1" xmlns="http://www.w3.org/2000/svg" xmlns:xlink="http://www.w3.org/1999/xlink" viewBox="0 0 96 96"><defs><style>.cls-1{fill:none;}.cls-2{fill:url(#radial-gradient);}.cls-3{fill:#26247b;}.cls-4{fill:url(#linear-gradient);}.cls-5{fill:url(#radial-gradient-2);}.cls-6{fill:url(#radial-gradient-3);}.cls-7{fill:url(#linear-gradient-2);}.cls-8{fill:url(#radial-gradient-4);}.cls-10,.cls-11,.cls-9{opacity:0.8;isolation:isolate;}.cls-9{fill:url(#linear-gradient-3);}.cls-10{fill:url(#linear-gradient-4);}.cls-11{fill:url(#linear-gradient-5);}.cls-12{fill:url(#linear-gradient-6);}</style><radialGradient id="radial-gradient" cx="10.87" cy="180.63" r="43.09" gradientTransform="translate(0 -67.89) scale(1 0.54)" gradientUnits="userSpaceOnUse"><stop offset="0.19" stop-color="#0083ca"/><stop offset="0.26" stop-color="#0081c8"/><stop offset="0.35" stop-color="#007ac2"/><stop offset="0.42" stop-color="#0072bc"/><stop offset="0.49" stop-color="#006fba"/><stop offset="0.57" stop-color="#0068b4"/><stop offset="0.65" stop-color="#005cab"/><stop offset="0.7" stop-color="#0054a6"/><stop offset="1" stop-color="#26247b"/></radialGradient><linearGradient id="linear-gradient" x1="84.61" y1="59.72" x2="84.61" y2="35.93" gradientTransform="translate(0 0.53)" gradientUnits="userSpaceOnUse"><stop offset="0" stop-color="#820000"/><stop offset="0.22" stop-color="#c4161c"/><stop offset="0.47" stop-color="#ed1c24"/><stop offset="0.52" stop-color="#ee3424"/><stop offset="0.63" stop-color="#f05123"/><stop offset="0.7" stop-color="#f15a22"/><stop offset="0.85" stop-color="#f6851f"/><stop offset="1" stop-color="#fcaf17"/></linearGradient><radialGradient id="radial-gradient-2" cx="33.83" cy="173.26" r="43.58" gradientTransform="matrix(1, 0, 0, -1, 0, 98)" xlink:href="#radial-gradient"/><radialGradient id="radial-gradient-3" cx="57.43" cy="173.26" r="44.19" gradientTransform="matrix(1, 0, 0, -1, 0, 98)" xlink:href="#radial-gradient"/><linearGradient id="linear-gradient-2" x1="66.52" y1="59.77" x2="66.52" y2="35.78" gradientTransform="translate(0 0.53)" gradientUnits="userSpaceOnUse"><stop offset="0" stop-color="#c12428"/><stop offset="0.48" stop-color="#e8242a"/><stop offset="0.52" stop-color="#ea3529"/><stop offset="0.63" stop-color="#ee5227"/><stop offset="0.7" stop-color="#f05b26"/><stop offset="0.86" stop-color="#f38523"/><stop offset="1" stop-color="#f6ab1b"/></linearGradient><radialGradient id="radial-gradient-4" cx="57.43" cy="180.62" r="44.19" gradientTransform="translate(0 -67.88) scale(1 0.54)" xlink:href="#radial-gradient"/><linearGradient id="linear-gradient-3" x1="13.97" y1="36.89" x2="11.05" y2="53.64" gradientTransform="translate(0 0.53)" gradientUnits="userSpaceOnUse"><stop offset="0" stop-color="#fff" stop-opacity="0.8"/><stop offset="0.63" stop-color="#fff" stop-opacity="0"/></linearGradient><linearGradient id="linear-gradient-4" x1="36.68" y1="40.83" x2="33.76" y2="57.6" xlink:href="#linear-gradient-3"/><linearGradient id="linear-gradient-5" x1="59.34" y1="44.78" x2="56.43" y2="61.53" xlink:href="#linear-gradient-3"/><linearGradient id="linear-gradient-6" x1="62.83" y1="58.88" x2="65.91" y2="53.08" gradientTransform="translate(0 0.53)" gradientUnits="userSpaceOnUse"><stop offset="0.11" stop-color="#2e3192" stop-opacity="0"/><stop offset="0.98" stop-color="#000039"/></linearGradient></defs><title>Artboard 1</title><rect class="cls-1" width="96" height="96"/><g id="Layer_2" data-name="Layer 2"><g id="Layer_1-2" data-name="Layer 1-2"><path class="cls-2" d="M22.33,53.86c0,4.91-5.4,7.24-9.11,7.6A21,21,0,0,1,1.55,59.08.81.81,0,0,1,1.24,58h0l2.09-3.86a.83.83,0,0,1,1.09-.34,18.07,18.07,0,0,0,7.4,2c2.52,0,4-1.08,4-2.23h0c0-1.82-2.16-2.59-6.61-4.09S1.94,45,1.93,42.32c.23-7.19,9.05-9.56,15.71-6.65a.81.81,0,0,1,.42,1.08l0,.06-1.69,3.12a.8.8,0,0,1-1,.35,8.06,8.06,0,0,0-3.22-.58c-3.2-.06-3.94,2.48-3.18,3.59.56.75,1.72,1.6,5.71,2.69h0C17.48,46.79,22.33,48.4,22.33,53.86Z"/><path class="cls-3" d="M75.47,61.13H79A1.14,1.14,0,0,0,80.09,60V57.92l-5.75-2.49V60A1.15,1.15,0,0,0,75.47,61.13Z"/><path class="cls-4" d="M85.83,52.92h0a9,9,0,0,0,9-9.05h0a9,9,0,0,0-9-9H75.45A1.11,1.11,0,0,0,74.34,36h0V55.41l5.76,2.51V53.45a.51.51,0,0,1,.5-.51h0Zm0-5.71H80.6a.51.51,0,0,1-.51-.51h0V41.09a.51.51,0,0,1,.51-.52h5.23a3.28,3.28,0,0,1,3.28,3.28h0a3.26,3.26,0,0,1-3.24,3.3h0Z"/><path class="cls-5" d="M46.27,57.25c-.63-.76-2.16-2.51-2.79-3.28a.84.84,0,0,0-1.09-.14,11.82,11.82,0,0,1-3.23,1.58h0A7.74,7.74,0,0,1,33,54.89h0a7.81,7.81,0,0,1,4-14.71h0a11.29,11.29,0,0,1,3.54.64.78.78,0,0,0,1-.43l1.77-3.8v-.07a.8.8,0,0,0-.48-1A18.37,18.37,0,0,0,37,34.43h0A13.59,13.59,0,0,0,23.12,47.67a13.18,13.18,0,0,0,.19,2.59A13.61,13.61,0,0,0,38,61.48a12.74,12.74,0,0,0,3-.63,17.66,17.66,0,0,0,5.14-2.51.76.76,0,0,0,.21-1.06Z"/><path class="cls-6" d="M66,51.8v.08a7.81,7.81,0,1,1-6.44-11.7h0a11.24,11.24,0,0,1,3.54.64.8.8,0,0,0,.95-.43l1.77-3.8v-.07a.8.8,0,0,0-.49-1,18.21,18.21,0,0,0-5.81-1.07h0A13.55,13.55,0,1,0,68.3,58a13.72,13.72,0,0,0,3-3.91Z"/><path class="cls-7" d="M62.21,44.47a.83.83,0,0,1,1.07-.41L72.22,48a.78.78,0,0,1,.48.77,13.4,13.4,0,0,1-1.42,5.37L60.82,49.55a.82.82,0,0,1-.43-1.06l0,0Z"/><path class="cls-8" d="M71.28,54.09,66,51.8h0Z"/><path class="cls-9" d="M9.2,49.48c4.45,1.5,6.6,2.27,6.6,4.09h0c0,1.15-1.47,2.18-4,2.23a18,18,0,0,1-7.39-2,.82.82,0,0,0-1.09.34L1.22,58a.83.83,0,0,0,.32,1.11A21.08,21.08,0,0,0,13.2,61.5c3.71-.42,9.11-2.73,9.11-7.61,0-5.45-4.84-7-7.69-7.9h0c-4-1.09-5.18-1.9-5.71-2.69-.76-1.1,0-3.65,3.18-3.59a8.06,8.06,0,0,1,3.22.58.81.81,0,0,0,1-.39l1.39-2.56A42.13,42.13,0,0,0,2,41.28a7,7,0,0,0-.09,1C1.93,45,4.75,48,9.2,49.48Z"/><path class="cls-10" d="M23.31,50.28A13.61,13.61,0,0,0,38,61.5a12.74,12.74,0,0,0,3-.63,18,18,0,0,0,5.14-2.51.78.78,0,0,0,.2-1.09v0c-.63-.76-2.16-2.51-2.79-3.28a.84.84,0,0,0-1.09-.14,11.82,11.82,0,0,1-3.23,1.58h0A7.74,7.74,0,0,1,33,54.89h0a7.81,7.81,0,0,1,4-14.71,11,11,0,0,1,3.22.53l-.39-.13a61.22,61.22,0,0,0-12-2.85A13.58,13.58,0,0,0,23.31,50.28Z"/><path class="cls-11" d="M45.81,50.28A13.56,13.56,0,0,0,68.3,58a13.81,13.81,0,0,0,3-3.93L66,51.8v.08a7.82,7.82,0,0,1-10,3.23,7.72,7.72,0,0,1-4.17-9.51l-5.32-2.3A13.4,13.4,0,0,0,45.81,50.28Z"/><path class="cls-12" d="M68.31,58a13.81,13.81,0,0,0,3-3.93L66,51.8v.08a7.83,7.83,0,0,1-6.9,3.93v5.7A13.4,13.4,0,0,0,68.31,58Z"/></g></g></svg>